<svg width="122" height="49" viewBox="0 0 122 49" fill="none" xmlns="http://www.w3.org/2000/svg">
<path d="M17.2756 40V13.8182H22.8111V35.4361H34.0355V40H17.2756ZM60.7415 26.9091C60.7415 29.7642 60.2003 32.1932 59.1179 34.196C58.044 36.1989 56.5781 37.7287 54.7202 38.7855C52.8707 39.8338 50.7912 40.358 48.4815 40.358C46.1548 40.358 44.0668 39.8295 42.2173 38.7727C40.3679 37.7159 38.9063 36.1861 37.8324 34.1832C36.7585 32.1804 36.2216 29.7557 36.2216 26.9091C36.2216 24.054 36.7585 21.625 37.8324 19.6222C38.9063 17.6193 40.3679 16.0937 42.2173 15.0455C44.0668 13.9886 46.1548 13.4602 48.4815 13.4602C50.7912 13.4602 52.8707 13.9886 54.7202 15.0455C56.5781 16.0937 58.044 17.6193 59.1179 19.6222C60.2003 21.625 60.7415 24.054 60.7415 26.9091ZM55.1293 26.9091C55.1293 25.0597 54.8523 23.5 54.2983 22.2301C53.7528 20.9602 52.9815 19.9972 51.9844 19.3409C50.9872 18.6847 49.8196 18.3565 48.4815 18.3565C47.1435 18.3565 45.9759 18.6847 44.9787 19.3409C43.9815 19.9972 43.206 20.9602 42.652 22.2301C42.1065 23.5 41.8338 25.0597 41.8338 26.9091C41.8338 28.7585 42.1065 30.3182 42.652 31.5881C43.206 32.858 43.9815 33.821 44.9787 34.4773C45.9759 35.1335 47.1435 35.4616 48.4815 35.4616C49.8196 35.4616 50.9872 35.1335 51.9844 34.4773C52.9815 33.821 53.7528 32.858 54.2983 31.5881C54.8523 30.3182 55.1293 28.7585 55.1293 26.9091ZM82.2028 22.2812C82.0238 21.6591 81.7724 21.1094 81.4485 20.6321C81.1246 20.1463 80.7283 19.7372 80.2596 19.4048C79.7994 19.0639 79.271 18.804 78.6744 18.625C78.0863 18.446 77.4343 18.3565 76.7184 18.3565C75.3803 18.3565 74.2042 18.6889 73.19 19.3537C72.1843 20.0185 71.4002 20.9858 70.8377 22.2557C70.2752 23.517 69.994 25.0597 69.994 26.8835C69.994 28.7074 70.271 30.2585 70.8249 31.5369C71.3789 32.8153 72.163 33.7912 73.1772 34.4645C74.1914 35.1293 75.3888 35.4616 76.7695 35.4616C78.0224 35.4616 79.092 35.2401 79.9783 34.7969C80.8732 34.3452 81.555 33.7102 82.0238 32.892C82.5011 32.0739 82.7397 31.1065 82.7397 29.9901L83.8647 30.1562H77.1147V25.9886H88.0707V29.2869C88.0707 31.5881 87.5849 33.5653 86.6133 35.2188C85.6417 36.8636 84.3036 38.1335 82.5991 39.0284C80.8945 39.9148 78.9428 40.358 76.744 40.358C74.2894 40.358 72.1332 39.8168 70.2752 38.7344C68.4173 37.6435 66.9684 36.0966 65.9286 34.0938C64.8974 32.0824 64.3817 29.696 64.3817 26.9347C64.3817 24.8125 64.6886 22.9205 65.3022 21.2585C65.9244 19.5881 66.7937 18.1733 67.9102 17.0142C69.0266 15.8551 70.3263 14.973 71.8093 14.3679C73.2923 13.7628 74.8988 13.4602 76.6289 13.4602C78.1119 13.4602 79.4925 13.6776 80.771 14.1122C82.0494 14.5384 83.1829 15.1435 84.1715 15.9276C85.1687 16.7116 85.9826 17.6449 86.6133 18.7273C87.244 19.8011 87.6488 20.9858 87.8278 22.2812H82.2028ZM116.288 26.9091C116.288 29.7642 115.747 32.1932 114.665 34.196C113.591 36.1989 112.125 37.7287 110.267 38.7855C108.418 39.8338 106.338 40.358 104.028 40.358C101.702 40.358 99.6136 39.8295 97.7642 38.7727C95.9148 37.7159 94.4531 36.1861 93.3793 34.1832C92.3054 32.1804 91.7685 29.7557 91.7685 26.9091C91.7685 24.054 92.3054 21.625 93.3793 19.6222C94.4531 17.6193 95.9148 16.0937 97.7642 15.0455C99.6136 13.9886 101.702 13.4602 104.028 13.4602C106.338 13.4602 108.418 13.9886 110.267 15.0455C112.125 16.0937 113.591 17.6193 114.665 19.6222C115.747 21.625 116.288 24.054 116.288 26.9091ZM110.676 26.9091C110.676 25.0597 110.399 23.5 109.845 22.2301C109.3 20.9602 108.528 19.9972 107.531 19.3409C106.534 18.6847 105.366 18.3565 104.028 18.3565C102.69 18.3565 101.523 18.6847 100.526 19.3409C99.5284 19.9972 98.7528 20.9602 98.1989 22.2301C97.6534 23.5 97.3807 25.0597 97.3807 26.9091C97.3807 28.7585 97.6534 30.3182 98.1989 31.5881C98.7528 32.858 99.5284 33.821 100.526 34.4773C101.523 35.1335 102.69 35.4616 104.028 35.4616C105.366 35.4616 106.534 35.1335 107.531 34.4773C108.528 33.821 109.3 32.858 109.845 31.5881C110.399 30.3182 110.676 28.7585 110.676 26.9091Z" fill="#484747"/>
<rect width="24" height="3" fill="#FF9900"/>
<rect x="3" width="17" height="3" transform="rotate(90 3 0)" fill="#484747"/>
<rect x="122" y="35" width="5" height="5" transform="rotate(90 122 35)" fill="#FF9900"/>
</svg>
